<svg fill="#2eb01c" height="512" viewBox="0 0 64 64" width="512" xmlns="http://www.w3.org/2000/svg"><g id="Question"><path d="m27 46h-3.667l-3.333-2.5v-2.764a7 7 0 0 0 2.92-4.736h1.08a2 2 0 0 0 2-2v-1a2 2 0 0 0 -1.624-1.962l1.331-1.331a1 1 0 0 0 .293-.707v-1a7.008 7.008 0 0 0 -7-7h-6a7.008 7.008 0 0 0 -7 7v1a1 1 0 0 0 .293.707l1.331 1.331a2 2 0 0 0 -1.624 1.962v1a2 2 0 0 0 2 2h1.08a7 7 0 0 0 2.92 4.736v2.764l-3.333 2.5h-3.667a3 3 0 0 0 -3 3v12a1 1 0 0 0 1 1h26a1 1 0 0 0 1-1v-12a3 3 0 0 0 -3-3zm-3-12h-1v-1h1zm-16-6a5.006 5.006 0 0 1 5-5h6a5.006 5.006 0 0 1 5 5v.586l-1 1v-.586a1 1 0 0 0 -.757-.97l-8-2a.992.992 0 0 0 -.69.075l-4 2a1 1 0 0 0 -.553.895v.586l-1-1zm0 5h1v1h-1zm3 2v-5.382l3.116-1.558 6.884 1.721v5.219a5 5 0 0 1 -10 0zm2.6 9.8a1 1 0 0 0 .4-.8v-2.3a6.927 6.927 0 0 0 4 0v2.3a1 1 0 0 0 .4.8l2.783 2.087-5.183 2.961-5.183-2.961zm7.989 4.158-1.248 6.242a1 1 0 0 1 -.981.8h-6.72a1 1 0 0 1 -.981-.8l-1.248-6.238 5.093 2.91a1 1 0 0 0 .992 0zm6.411 11.042h-24v-11a1 1 0 0 1 1-1h3.18l1.52 7.588a3.007 3.007 0 0 0 2.94 2.412h6.72a3.007 3.007 0 0 0 2.94-2.412l1.52-7.588h3.18a1 1 0 0 1 1 1z"/><path d="m40 14h4a1 1 0 0 0 1-1 1 1 0 0 1 .377-.783 1.013 1.013 0 0 1 .92-.179.957.957 0 0 1 .678.723 1.015 1.015 0 0 1 -.464 1.1 7.076 7.076 0 0 0 -3.511 6.139 3 3 0 1 0 6-.077 1.105 1.105 0 0 1 .592-.914 7.074 7.074 0 0 0 2.961-8.509 6.864 6.864 0 0 0 -4.334-4.148 7.085 7.085 0 0 0 -6.582 1.178 6.964 6.964 0 0 0 -2.637 5.47 1 1 0 0 0 1 1zm2.884-4.911a5.082 5.082 0 0 1 4.728-.835 4.85 4.85 0 0 1 3.063 2.931 5.071 5.071 0 0 1 -2.11 6.108 3.109 3.109 0 0 0 -1.565 2.707 1 1 0 0 1 -1 1 1.021 1.021 0 0 1 -1-1.077 5.06 5.06 0 0 1 2.538-4.346 3.007 3.007 0 0 0 1.4-3.212 2.943 2.943 0 0 0 -2.156-2.265 3.221 3.221 0 0 0 -.791-.1 3.008 3.008 0 0 0 -2.821 2h-2.07a4.977 4.977 0 0 1 1.784-2.911z"/><path d="m46 24a3 3 0 1 0 3 3 3 3 0 0 0 -3-3zm0 4a1 1 0 1 1 1-1 1 1 0 0 1 -1 1z"/><path d="m46 34a16 16 0 1 0 -16-16 15.85 15.85 0 0 0 2.846 9.083l-.822 3.7a1 1 0 0 0 1.327 1.154l3.049-1.144a16.033 16.033 0 0 0 9.6 3.207zm-11.624-4.584.519-2.335a1 1 0 0 0 -.17-.809 13.928 13.928 0 1 1 2.475 2.611 1 1 0 0 0 -.98-.159z"/><path d="m52 40h2v10h-2z"/><path d="m48 42h2v8h-2z"/><path d="m44 44h2v6h-2z"/><path d="m40 46h2v4h-2z"/><path d="m42 56h16v2h-16z"/><path d="m36 56h4v2h-4z"/><path d="m54 60h4v2h-4z"/><path d="m36 60h16v2h-16z"/><path d="m55 36h-16a3 3 0 0 0 -3 3v12a3 3 0 0 0 3 3h16a3 3 0 0 0 3-3v-12a3 3 0 0 0 -3-3zm1 15a1 1 0 0 1 -1 1h-16a1 1 0 0 1 -1-1v-12a1 1 0 0 1 1-1h16a1 1 0 0 1 1 1z"/></g></svg>