<svg xmlns="http://www.w3.org/2000/svg" viewBox="0 0 260 260"><g style="isolation:isolate"><g id="Layer_1" data-name="Layer 1"><rect width="260" height="260" style="fill:none"/><path d="M166.52,193.85c0-7.49-16.35-13.55-36.52-13.55s-36.51,6.06-36.51,13.55c7.93,7.53,16.34,13.56,36.51,13.56S162.39,199.14,166.52,193.85Z" style="fill:#fff;stroke:#1d3557;stroke-miterlimit:10;stroke-width:0.5px"/><path d="M99.24,128.55c.74,12.79-5.27,23.53-13.41,24S70.48,143,69.74,130.26s5.27-23.53,13.41-24S98.51,115.77,99.24,128.55Z" style="fill:#1d3557;stroke:#1d3557;stroke-miterlimit:10;stroke-width:0.5px"/><path d="M160.76,128.55c-.74,12.79,5.27,23.53,13.41,24s15.36-9.51,16.1-22.29-5.27-23.53-13.42-24S161.5,115.77,160.76,128.55Z" style="fill:#1d3557;stroke:#1d3557;stroke-miterlimit:10;stroke-width:0.5px"/><path d="M187.77,121.07a2.24,2.24,0,0,0,0,4.31c.8.22,18.91,5.47,24.16,28.21a2.23,2.23,0,0,0,4.35-1c-5.87-25.44-26.46-31.28-27.34-31.52A2.25,2.25,0,0,0,187.77,121.07Z" style="fill:#1d3557;stroke:#1d3557;stroke-miterlimit:10;stroke-width:0.5px"/><path d="M211.92,149.26a12.4,12.4,0,0,0-.77,15.25,2.71,2.71,0,1,0,4.43-3.12,7,7,0,0,1,11.4-8,2.71,2.71,0,1,0,4.43-3.12,12.38,12.38,0,0,0-19.49-1Z" style="fill:#1d3557;stroke:#1d3557;stroke-miterlimit:10;stroke-width:0.5px"/><path d="M198.63,134.05,208,123.16s7.23,9.51,8.27,19.66l-8.92,4.93S202.78,138.25,198.63,134.05Z" style="fill:#fff;stroke:#1d3557;stroke-miterlimit:10;stroke-width:0.5px"/><path d="M130,232c-11.57,0-24.28-14.52-34.88-39.83C86.23,170.92,80,144.67,80,128.33c0-13.81,4.66-23.33,14.23-29.09,8-4.81,19.68-7.15,35.76-7.15s27.79,2.34,35.76,7.15C175.34,105,180,114.52,180,128.33c0,16.34-6.21,42.59-15.11,63.82C154.28,217.46,141.57,232,130,232Z" style="fill:#1d3557;stroke:#1d3557;stroke-miterlimit:10;stroke-width:0.5px"/><path d="M182.16,128.33c0-31.34-23.35-38.41-52.16-38.41S77.84,97,77.84,128.33c0,12.33,3.62,31.33,9.76,49.85a106.88,106.88,0,0,0,31.28,7.45,10.51,10.51,0,0,1,21,0,105.88,105.88,0,0,0,32.71-8C178.62,159.26,182.16,140.53,182.16,128.33Z" style="fill:#fff;stroke:#1d3557;stroke-miterlimit:10;stroke-width:0.5px"/><path d="M86.59,64.17C86.45,72.44,84,79.11,81.2,79.06s-5-6.8-4.86-15.07,2.56-15,5.39-14.9S86.74,55.89,86.59,64.17Z" style="fill:#1d3557;stroke:#1d3557;stroke-miterlimit:10;stroke-width:0.5px"/><path d="M174.87,65.73c-.14,8.27,2,15,4.87,15.07s5.24-6.62,5.39-14.89-2-15-4.86-15.08S175,57.45,174.87,65.73Z" style="fill:#1d3557;stroke:#1d3557;stroke-miterlimit:10;stroke-width:0.5px"/><path d="M183.1,65.87c-.4,22.91-24.18,41.06-53.1,40.55S78,86.93,78.36,64,102.54,23,131.47,23.47,183.51,43,183.1,65.87Z" style="fill:#fff;stroke:#1d3557;stroke-miterlimit:10;stroke-width:0.5px"/><path d="M104.08,86.21A13.64,13.64,0,0,1,90.7,72.35L91,56.14a13.64,13.64,0,0,1,13.86-13.38l52.53.92a13.64,13.64,0,0,1,13.38,13.86l-.29,16.22a13.64,13.64,0,0,1-13.85,13.38Z" style="fill:#ddd"/><path d="M168.81,57.51a11.66,11.66,0,0,0-11.46-11.88l-52.53-.93A11.67,11.67,0,0,0,92.94,56.17l-.29,16.21a11.67,11.67,0,0,0,11.47,11.88l52.53.93a11.68,11.68,0,0,0,11.88-11.47Z" style="fill:#1d3557"/><path d="M115.66,64.07a4.7,4.7,0,1,0-4.7,4.7A4.69,4.69,0,0,0,115.66,64.07Z" style="fill:#fff"/><path d="M155.16,64.07a4.7,4.7,0,1,0-4.69,4.7A4.69,4.69,0,0,0,155.16,64.07Z" style="fill:#fff"/><path d="M168.18,53.53,146.82,85l6.69.11,15.21-22.42.09-5.2A11.42,11.42,0,0,0,168.18,53.53ZM160,46,133.67,84.78l10.85.2,22.72-33.51A11.69,11.69,0,0,0,160,46ZM93.07,75.67A11.58,11.58,0,0,0,96.24,81l24.42-36L114,44.86Zm11.75-31a11.55,11.55,0,0,0-4.64.88L92.94,56.25l-.29,16.13c0,.15,0,.3,0,.45l19-28Z" style="fill:#fff;opacity:0.5;mix-blend-mode:soft-light"/><rect x="121.22" y="72.5" width="3.48" height="2.98" transform="translate(-0.37 0.61) rotate(-0.28)" style="fill:#fff"/><rect x="135.15" y="72.43" width="3.48" height="2.98" transform="translate(-0.37 0.7) rotate(-0.29)" style="fill:#fff"/><rect x="124.71" y="75.47" width="3.48" height="2.98" transform="translate(-0.38 0.62) rotate(-0.28)" style="fill:#fff"/><rect x="131.68" y="75.43" width="3.48" height="2.98" transform="translate(-0.38 0.66) rotate(-0.28)" style="fill:#fff"/><rect x="128.2" y="75.45" width="3.48" height="2.98" transform="translate(-0.39 0.66) rotate(-0.29)" style="fill:#fff"/><path d="M88,47.59a51.92,51.92,0,0,1,28.87-20.42c19.71-5.44,1.68,3.78-4.56,6.22S98.27,37.64,88,47.59Z" style="fill:#fff;stroke:#1d3557;stroke-miterlimit:10;stroke-width:0.5px;mix-blend-mode:soft-light"/><path d="M75,127.91a2.77,2.77,0,0,1-1.42-.12c-1-.38-25.35-9.59-29.8-41A2.71,2.71,0,0,1,49.15,86c4,28.21,26.07,36.57,26.29,36.65a2.71,2.71,0,0,1-.44,5.22Z" style="fill:#1d3557;stroke:#1d3557;stroke-miterlimit:10;stroke-width:0.5px"/><path d="M47,88.79a14.16,14.16,0,0,1-3.39.21A14.14,14.14,0,0,1,30.29,74.11a3.09,3.09,0,1,1,6.18.33,8,8,0,0,0,15.89.88,3.09,3.09,0,0,1,6.18.34A14.15,14.15,0,0,1,47,88.79Z" style="fill:#1d3557;stroke:#1d3557;stroke-miterlimit:10;stroke-width:0.5px"/><path d="M62.15,107l-9.21,11s-7.35-9.43-8.5-19.57l8.85-5S58,102.87,62.15,107Z" style="fill:#fff;stroke:#1d3557;stroke-miterlimit:10;stroke-width:0.5px"/><path d="M130,203.14c-13.12,0-25.37-3.62-36.51-9.29,9.4,22.15,22.29,40.3,36.51,40.3s27.11-18.15,36.52-40.3A76.55,76.55,0,0,1,130,203.14Z" style="fill:#fff;stroke:#1d3557;stroke-miterlimit:10;stroke-width:0.5px"/><path d="M137.59,197c0-6-3.88-10.93-8.68-10.93S120.23,191,120.23,197,124.12,208,128.91,208,137.59,203.06,137.59,197Z" style="fill:#1d3557;stroke:#1d3557;stroke-miterlimit:10;stroke-width:0.5px"/><path d="M134.18,192.4c0-5.42-2.29-9.82-5.11-9.82S124,187,124,192.4s2.29,9.83,5.11,9.83S134.18,197.83,134.18,192.4Z" style="fill:#fff;stroke:#1d3557;stroke-miterlimit:10;stroke-width:0.5px"/><path d="M167.45,248c0-3.89-16.77-7.05-37.45-7.05S92.55,244.13,92.55,248s16.77,7,37.45,7S167.45,251.92,167.45,248Z" style="fill:#1d3557;stroke:#1d3557;stroke-miterlimit:10;stroke-width:0.5px"/><path d="M41.31,60.93l.15-.9-.71-.53-.17-.24.17-.13L40.65,58l.73-.5.52.06.53-.63-.15-.18.47-.18.94.18.63-.63.65.16.53.46.61-.3.35-.16.87-.89.68.16.51-.28.28.42.14,1L50,58l-.06.7-.58.57.16.51.77.47,0,.32.16,1.1.18.57-.29.87-.33.46.16.18.35-.21.15.22v.48l.33,0,.3-.29.22.24.15.3.16.2.8-.08.14.24-.59.6-1.11.1-1.27-.32-.73-.84-.82-.1-.67-.92-.27.17-1.74-1.69s-1,.17-1,.2-.37.24-.37.24l-.4-.26-1.7-.15-.27-.41Z" style="fill:#fff"/><path d="M35.81,58.93l.28-.93,1.15-1.2.36.35.62-.24-.66-.57v-.61l.19-1-.26-.32,0-1.25.27-1H37.6v-.87l.2-.12.17,0,0-.35,0-.07-.2.17-.24.13-.19-.18v-.18l.21-.22.15-.06.27.08.08-.12,0,0,0,0,.26-.36-.11-.19.21-.13.16.15,0,.28.2.15.53-.29.19-.11h0l.12-.14-.24-.25L39,49.6l-.25-.24.12-.25-.34-.36-.34.08-.27.08-.62-.56-.26.79-.18.2-.41-.5-.87.57-.06.51.69.67-.34.71.24.65-.18.27-.59-.55-.56.44-.4.09-.48-.26.35-1.42.29-.58.34.24.22-.26-.13-.16.22-.29-.06,0-.15.06-.18-.12L35,49l0-.39h0v-.12l.56-.75.53,0-.33,1.17L37,48.08l-.21-.44.08-.08.34-.35L37,46.78l-.37.23-.36-.35-.27.12-1.07.43-.56.74-.16.56.5.42-.44.34L34,49.08l0-.7L33.3,49l-.13.25.15.3.28-.21.21.29-.39.46.11.23-.59.64a2.46,2.46,0,0,0-.4-.3l.47-.5v-.72l-.3.11v.52l-.45.42-.64-.08-.55.57-.12,1,.52-.54.21.1v.28l.61-.6.3.12-.68.66-.21-.12-.5.34-.34.1-.5.52A14.07,14.07,0,0,1,34.15,45l0,0a14.07,14.07,0,0,1,9-4.27l.1.33-.27.65,0,.4.3.2.27-.22.5.21.23-.57.56.4-.13.12-.37.3-.3.44.16.87-.42.6.38.51.26-.17.23.34-.61.43-.35.58.17.36.64.45.4-.15.45-.48.28-.35-.16-.33-.17-1.13.38-.27,0-.6.28.16,1.3-.28,0,.23L47,44.1l.33.06.26-.18.13-.36-.31-.3.05-.17h-.18l-.8.25-.53-.24.42-.45h.27l.7-.07.41.37h.79l-.43-.7.11-.41.52.4h.56l.49-.55c.37.16.72.33,1.08.51v.11l-.77.81-.85.14-.45.58.32.29-.16.17-.3.06-1.09.68L47,44.56l-1,1.23-.15.54-.43.45-.24.21-.22.84.57.55-.27,1.91.44.24.22-.23.27.38-.09.22.85.83,2.05.1.4-.42,0-.1.73-.76v-.42l.42-.43h.46l.68-.58.78.91,2,.5.36,1.07.36.3.58,0,.82.79.89.11.68.65.32-.34a14.16,14.16,0,0,1-3.79,11.51s0,0,0,0a16.2,16.2,0,0,1-1.77,1.56h0l-.51-.69.59-.6-.14-.24-.8.08-.16-.2-.15-.3L51.38,64l-.3.29-.33,0v-.48l-.15-.22-.35.21-.16-.18.33-.46.29-.87-.18-.57-.16-1.1,0-.32-.77-.47-.16-.51L50,58.7,50,58l-1.1-1.3-.14-1-.28-.42-.51.28-.68-.16-.87.89-.35.16-.61.3L45,56.32l-.65-.16-.63.63-.94-.18-.47.18.15.18-.53.63-.52-.06-.73.5.1,1.09-.17.13-.75.55-1-.82-.67.49L38,58.82l-.33-.18-.22,1.28-.53.43-.55-.2-.3-.48Z" style="fill:#fff"/><path d="M35.24,61l.14.4.89.17,1.07-.68-.15-.14.39-.3.23.27.31-.22.53-.32,1.29,0,.81-.72.71.53-.15.9.55.57.27.41,1.7.15.4.26s.34-.21.37-.24,1-.2,1-.2l1.74,1.69.27-.17.67.92.82.1.73.84,1.27.32,1.11-.1.51.69a14.13,14.13,0,0,1-21.42-5.79l.58.56.61-.23.81.77,1.08.26.37-.28-.2-.27-1-.19L33,60.52l.22-.23.69.48Z" style="fill:#fff"/><path d="M32.72,66.24a16.32,16.32,0,1,1,23.07.31A16.33,16.33,0,0,1,32.72,66.24Zm5.4-5.75-.31.22-.23-.27-.39.3.15.14-1.07.68-.89-.17-.14-.4-1.36-.22-.69-.48-.22.23.66.48,1,.19.2.27-.37.28-1.08-.26-.81-.77-.61.23-.58-.56a14.13,14.13,0,0,0,21.42,5.79h0a16.2,16.2,0,0,0,1.77-1.56s0,0,0,0a14.16,14.16,0,0,0,3.79-11.51l-.32.34-.68-.65-.89-.11-.82-.79-.58,0-.36-.3-.36-1.07-2-.5-.78-.91-.68.58h-.46l-.42.43v.42l-.73.76,0,.1-.4.42-2.05-.1-.85-.83.09-.22-.27-.38-.22.23-.44-.24.27-1.91-.57-.55.22-.84.24-.21.43-.45.15-.54,1-1.23.59.56,1.09-.68.3-.06.16-.17-.32-.29.45-.58.85-.14.77-.81v-.11c-.36-.18-.71-.35-1.08-.51l-.49.55h-.56l-.52-.4-.11.41.43.7h-.79l-.41-.37-.7.07h-.27l-.42.45.53.24.8-.25h.18l-.05.17.31.3-.13.36-.26.18L47,44.1l.37-.33,0-.23-1.3.28-.28-.16,0,.6-.38.27.17,1.13.16.33-.28.35-.45.48-.4.15-.64-.45-.17-.36.35-.58.61-.43-.23-.34-.26.17-.38-.51.42-.6L44.07,43l.3-.44.37-.3.13-.12-.56-.4-.23.57-.5-.21-.27.22-.3-.2,0-.4.27-.65-.1-.33a14.07,14.07,0,0,0-9,4.27l0,0a14.07,14.07,0,0,0-3.8,7.87l.5-.52.34-.1.5-.34.21.12.68-.66-.3-.12-.61.6V51.6l-.21-.1-.52.54.12-1,.55-.57.64.08.45-.42v-.52l.3-.11v.72l-.47.5a2.46,2.46,0,0,1,.4.3l.59-.64-.11-.23.39-.46-.21-.29-.28.21-.15-.3L33.3,49l.68-.65,0,.7.32.19.44-.34-.5-.42.16-.56.56-.74L36,46.78l.27-.12.36.35.37-.23.15.43-.34.35-.08.08.21.44-1.18.77.33-1.17-.53,0-.56.75v.12h0L35,49l-.28.35.18.12.15-.06.06,0-.22.29.13.16-.22.26-.34-.24-.29.58-.35,1.42.48.26.4-.09.56-.44.59.55.18-.27-.24-.65.34-.71-.69-.67.06-.51.87-.57.41.5.18-.2.26-.79.62.56.27-.08.34-.08.34.36-.12.25.25.24.42-.17.24.25-.12.14h0l-.19.11-.53.29-.2-.15,0-.28-.16-.15-.21.13.11.19-.26.36,0,0,0,0-.08.12-.27-.08-.15.06-.21.22v.18l.19.18.24-.13.2-.17,0,.07,0,.35-.17,0-.2.12v.87h.11l-.27,1,0,1.25.26.32-.19,1v.61l.66.57-.62.24-.36-.35L36.09,58l-.28.93.23.74.3.48.55.2.53-.43.22-1.28.33.18.22.66.67-.49,1,.82.75-.55.17.24-.81.72-1.29,0Z" style="fill:#1d3557"/><ellipse cx="44.41" cy="54.85" rx="16.32" ry="16.33" style="fill:none;stroke:#1d3557;stroke-miterlimit:10;stroke-width:0.5px"/><circle cx="129.73" cy="129.07" r="10.51" transform="translate(-24.44 227.65) rotate(-77.45)" style="fill:#1d3557;stroke:#1d3557;stroke-miterlimit:10;stroke-width:0.5px"/><path d="M125.11,130.85h9.23a.22.22,0,0,0,.22-.22v-5.21a.22.22,0,0,0-.22-.22h-9.23a.22.22,0,0,0-.22.22v5.21A.22.22,0,0,0,125.11,130.85Zm.23-5.2h8.78v4.76h-8.78Z" style="fill:#fff"/><path d="M124.59,132h4c-.05.42-.23,1.25-.61,1.49h-1.59a.3.3,0,1,0,0,.6h6.84a.3.3,0,0,0,0-.6h-1.44c-.38-.24-.56-1.07-.61-1.49h3.69a.89.89,0,0,0,.89-.89V124.9a.89.89,0,0,0-.89-.89H124.59a.89.89,0,0,0-.89.89v6.25A.89.89,0,0,0,124.59,132Zm6.41,1.49h-2.25a4,4,0,0,0,.42-1.49h1.4A4.27,4.27,0,0,0,131,133.53Zm-6.7-8.63a.3.3,0,0,1,.29-.3h10.27a.31.31,0,0,1,.3.3v6.25a.3.3,0,0,1-.3.3H124.59a.29.29,0,0,1-.29-.3Z" style="fill:#fff"/><polygon points="92.57 28.48 95.4 26.21 89.21 13.75 82.99 18.16 92.57 28.48" style="fill:#1d3557"/><polygon points="90.86 33.32 91.58 29.76 75.79 17.87 73.83 25.24 90.86 33.32" style="fill:#1d3557"/><polygon points="99.58 26.48 96.7 26.05 90.79 4.93 99.39 7.57 99.58 26.48" style="fill:#1d3557"/></g></g></svg>