<svg xmlns="http://www.w3.org/2000/svg" viewBox="0 0 410 260"><g style="isolation:isolate"><g id="Layer_1" data-name="Layer 1"><rect width="410" height="260" style="fill:none"/><path d="M224.42,134c0,.7-.22,1.05-.65,1.05h-5.13c-.43,0-1.55-1.59-3.36-4.75q-2.29-4-3.06-5.8t-.87-1.92a2.07,2.07,0,0,0-1.56-1.18c-.17,0-.67,0-1.49,0-1.87,0-2.81.23-2.81.69q0,2.06.15,6.13t.14,6.11c0,.49-.18.74-.56.74s-.7,0-1.27-.07-1-.07-1.27-.07-.66,0-1.19.07-.93.07-1.19.07-.56-.18-.56-.52q0-2.44.23-7.37c.16-3.27.24-5.73.24-7.36s-.08-4.32-.24-7.77-.23-6.05-.23-7.77c0-.33.18-.49.56-.49s.67,0,1.22.06,1,.07,1.25.07.67,0,1.2-.07.94-.06,1.21-.06.51.13.51.4q0,1.89-.12,5.7t-.12,5.73a3.09,3.09,0,0,0,.11,1.1c.12.26.42.4.91.4,2.88,0,5-.54,6.33-1.61a13.34,13.34,0,0,0,3.26-5.24l2.23-6a.89.89,0,0,1,.69-.51,16.16,16.16,0,0,1,2.36-.09q2.46,0,2.46.69a28.65,28.65,0,0,1-1,3.61,25.83,25.83,0,0,1-3.12,6.6,22,22,0,0,1-3.37,3.9,1.25,1.25,0,0,0-.53.85,24.26,24.26,0,0,0,1.8,4,47.54,47.54,0,0,0,2.83,5c.94,1.14,2.25,2.91,3.93,5.28A1,1,0,0,1,224.42,134Z" style="fill:#1d3557;stroke:#1d3557;stroke-miterlimit:10;stroke-width:0.5px"/><path d="M266.32,115.19q0,.18-4.46,9.54-1.49,3.26-4.57,9.72c-.19.4-.39.61-.6.61h-4c-.29,0-.52-.21-.7-.61-1.09-2.58-2.68-6.66-4.74-12.21q-1.55,4.1-4.8,12.21c-.16.4-.38.61-.67.61h-4c-.22,0-.43-.21-.62-.61-1-2.15-2.56-5.39-4.62-9.72q-4.26-8.87-4.25-9.54c0-1.22,0-3,.11-5.51s.11-4.28.11-5.5c0-.27.18-.4.56-.4s.67,0,1.21.06.95.07,1.22.07.63,0,1.13,0l1.14,0c.31,0,.47.11.47.33q0,1.81-.21,5.46c-.14,2.43-.22,4.24-.22,5.45q0,1.13,4.51,10.3a18.51,18.51,0,0,0,1.63,3,.77.77,0,0,0,.11-.16c.18-.34.55-1.29,1.13-2.85q1.6-4.35,3.3-9.88c0-.37.07-1.54.07-3.52,0-.88,0-2.19-.08-3.94s-.08-3.05-.08-3.93c0-.22.16-.33.47-.33s.71,0,1.27.06,1,.07,1.3.07.63,0,1.13-.07.89-.06,1.14-.06.51.11.51.35q0,1.41-.09,4.23c-.06,1.88-.08,3.29-.08,4.22,0,1.53,0,2.46,0,2.79q.06,1.11,3.36,9.79c.24.65.63,1.59,1.16,2.81a.46.46,0,0,0,.09.15,18.08,18.08,0,0,0,1.58-3q4.39-9,4.4-10.15c0-1.22-.07-3-.2-5.46s-.2-4.24-.2-5.44c0-.22.06-.33.17-.33.3,0,.74,0,1.33.06s1,.07,1.33.07.67,0,1.22-.07,1-.06,1.25-.06.49.08.54.26v.63c0,1.17,0,2.93.11,5.26S266.32,114,266.32,115.19Z" style="fill:#1d3557;stroke:#1d3557;stroke-miterlimit:10;stroke-width:0.5px"/><path d="M299.84,134.79q0,.27-.54.27c-.28,0-.69,0-1.23-.07s-1-.07-1.24-.07-.71,0-1.27.07-1,.07-1.27.07-1-1.13-1.6-3.38-1.3-3.39-2-3.42-2,0-4.3,0h-3.53c-2.45,0-3.84,0-4.19,0-.53,0-1.1,1.18-1.7,3.43s-1.07,3.37-1.4,3.37h-5c-.3,0-.45-.11-.45-.32a4.11,4.11,0,0,1,.31-1l5.47-14.94q.69-1.8,4.19-10.41c.41-1,1-2.39,1.69-4.3.18-.57.37-.85.58-.85a11.1,11.1,0,0,1,1.25.11,6.63,6.63,0,0,0,2.46,0,9.24,9.24,0,0,1,1.2-.12c.13,0,.32.27.56.82q.52,1.26,5.28,13.45Q299.84,134.64,299.84,134.79Zm-10.39-12.31a37.64,37.64,0,0,0-2-5.8c-1.29-3.32-2.2-5.51-2.74-6.55q-4.62,11.78-4.61,12.33c0,.5.56.8,1.69.89.06,0,.79,0,2.19,0h2.29C288.39,123.37,289.45,123.08,289.45,122.48Z" style="fill:#1d3557;stroke:#1d3557;stroke-miterlimit:10;stroke-width:0.5px"/><path d="M332.69,104.27c0,1.71-.06,4.28-.18,7.73s-.18,6-.18,7.76,0,4,.05,7.28,0,5.66,0,7.28c0,.49-.19.74-.56.74s-.55,0-1-.07a9.61,9.61,0,0,0-1-.07c-.24,0-.6,0-1.1.07s-.85.07-1.09.07-.59-.25-1-.74q-4.81-6.49-14.6-19.35c-1-1.31-1.6-2-1.76-2.19-.15,0-.22.31-.22.92,0,2.29,0,5.72.11,10.31s.11,8,.11,10.31c0,.49-.15.74-.45.74s-.64,0-1.16-.07-.9-.07-1.16-.07-.66,0-1.19.07-.92.07-1.19.07-.56-.15-.56-.45q0-2.46.24-7.39t.23-7.41q0-2.7-.2-9.72c0-1.22-.11-3-.22-5.49l0-.29q0-.33.54-.36c1,0,1.72,0,2.27-.09.21,0,.6-.07,1.18-.17a7,7,0,0,1,1.16-.14c.14,0,.37.22.7.65q5.12,7,15.69,21c.31.38.6.72.87,1a35.22,35.22,0,0,0,.16-4.28q0-2.89-.22-8.7t-.21-8.67c0-.49.15-.73.45-.73s.67,0,1.21.06,1,.07,1.22.07.7,0,1.27-.07,1-.06,1.27-.06S332.69,103.94,332.69,104.27Z" style="fill:#1d3557;stroke:#1d3557;stroke-miterlimit:10;stroke-width:0.5px"/><path d="M367.28,134.79q0,.27-.54.27c-.28,0-.69,0-1.24-.07s-.95-.07-1.23-.07-.71,0-1.27.07-1,.07-1.28.07-.94-1.13-1.59-3.38-1.3-3.39-2-3.42-2,0-4.31,0h-3.52c-2.45,0-3.85,0-4.19,0-.53,0-1.1,1.18-1.7,3.43s-1.07,3.37-1.4,3.37h-5c-.3,0-.45-.11-.45-.32a3.68,3.68,0,0,1,.31-1l5.46-14.94q.69-1.8,4.2-10.41c.41-1,1-2.39,1.69-4.3.18-.57.37-.85.58-.85a11.1,11.1,0,0,1,1.25.11,9,9,0,0,0,1.25.11,9.2,9.2,0,0,0,1.21-.12,9.13,9.13,0,0,1,1.19-.12c.14,0,.32.27.56.82q.54,1.26,5.29,13.45Q367.28,134.64,367.28,134.79Zm-10.39-12.31a37.64,37.64,0,0,0-2-5.8c-1.29-3.32-2.21-5.51-2.74-6.55q-4.62,11.78-4.62,12.33c0,.5.57.8,1.7.89.06,0,.79,0,2.18,0h2.3C355.82,123.37,356.89,123.08,356.89,122.48Z" style="fill:#1d3557;stroke:#1d3557;stroke-miterlimit:10;stroke-width:0.5px"/><path d="M227.18,169.51a17.11,17.11,0,0,1-3.56,10.83,12.07,12.07,0,0,1-10,5c-.77,0-1.93,0-3.49-.09s-2.71-.09-3.49-.09-1.75,0-3.15.09-2.46.09-3.15.09a.49.49,0,0,1-.56-.56q0-2.43.19-7.34c.12-3.27.19-5.72.19-7.36s-.06-4.31-.18-7.78-.18-6.05-.18-7.78c0-.31.19-.46.58-.46.55,0,1.37,0,2.46,0l2.47,0,2.32,0c1,0,1.82,0,2.36,0q7.74,0,11.53,2.92a13.58,13.58,0,0,1,4.21,5.64A17.39,17.39,0,0,1,227.18,169.51Zm-5.46,0a11.25,11.25,0,0,0-2.74-7.85,9.79,9.79,0,0,0-7.63-3.14,19.25,19.25,0,0,1-3.18-.05q-2.61.14-2.61,1c0,1.15,0,2.86-.08,5.14s-.08,4-.08,5.14,0,2.82.08,5.08.08,4,.08,5.09c0,.56.89.89,2.67,1-.23,0,.85,0,3.26,0a12.53,12.53,0,0,0,4.08-.53,7.72,7.72,0,0,0,3.36-2.48A12.65,12.65,0,0,0,221.72,169.51Z" style="fill:#1d3557;stroke:#1d3557;stroke-miterlimit:10;stroke-width:0.5px"/><path d="M239.21,184.85c0,.31-.22.47-.65.47-.26,0-.67,0-1.22-.07s-1-.07-1.23-.07-.7,0-1.25.07-1,.07-1.22.07-.56-.18-.56-.52q0-2.53.23-7.66t.24-7.68c0-1.65-.08-4.12-.24-7.43s-.23-5.79-.23-7.44c0-.37.17-.55.51-.55s.71,0,1.3.06,1,.07,1.31.07.67,0,1.2-.07.94-.06,1.21-.06.58.14.58.44c0,1.67-.06,4.16-.18,7.49s-.18,5.83-.18,7.49.06,4.28.19,7.69S239.21,183.14,239.21,184.85Z" style="fill:#1d3557;stroke:#1d3557;stroke-miterlimit:10;stroke-width:0.5px"/><path d="M273.46,184.22c0,.33-.15.49-.55.49a5.48,5.48,0,0,1-1.62-.63,14.13,14.13,0,0,1-1.64-.91,16.84,16.84,0,0,1-9.72,2.79,13.62,13.62,0,0,1-10.79-4.9,16.7,16.7,0,0,1-4-11.31,17.08,17.08,0,0,1,3.94-11.46,13.57,13.57,0,0,1,10.86-4.9,14.49,14.49,0,0,1,6.61,1.61,13.23,13.23,0,0,1,5.07,4.43,1.27,1.27,0,0,1,.29.65,7.53,7.53,0,0,1-1.59,2.06c-1.06,1.17-1.68,1.75-1.84,1.75s-.57-.45-1.36-1.36a14.27,14.27,0,0,0-2.72-2.52,7.46,7.46,0,0,0-4.24-1.36,8.34,8.34,0,0,0-6.91,3.52,12.74,12.74,0,0,0,.07,15.12,8.38,8.38,0,0,0,6.89,3.54,13.37,13.37,0,0,0,7.49-2.23c0-.4-.16-1.81-.38-4.23-.18-1.73-.27-3.13-.27-4.22,0-.25.17-.37.49-.37s.71,0,1.27.05,1,.06,1.28.06.71,0,1.29,0,1,0,1.29,0,.47.24.47.71,0,1.31-.06,2.35-.05,1.84-.05,2.36c0,2.14.14,5,.42,8.69Z" style="fill:#1d3557;stroke:#1d3557;stroke-miterlimit:10;stroke-width:0.5px"/><path d="M285.4,184.85c0,.31-.21.47-.64.47-.27,0-.68,0-1.23-.07s-1-.07-1.23-.07-.7,0-1.25.07-.95.07-1.22.07-.56-.18-.56-.52q0-2.53.23-7.66t.24-7.68c0-1.65-.08-4.12-.24-7.43s-.23-5.79-.23-7.44c0-.37.17-.55.51-.55s.72,0,1.3.06,1,.07,1.31.07.67,0,1.21-.07.93-.06,1.2-.06.58.14.58.44c0,1.67-.06,4.16-.18,7.49s-.18,5.83-.18,7.49.07,4.28.19,7.69S285.4,183.14,285.4,184.85Z" style="fill:#1d3557;stroke:#1d3557;stroke-miterlimit:10;stroke-width:0.5px"/><path d="M313.1,158.25c0,.39-.13.58-.4.58s-3.05-.09-7.89-.27c-.14,4.53-.2,8.17-.2,10.9,0,1.71.06,4.28.19,7.69s.18,6,.18,7.7c0,.31-.21.47-.64.47-.27,0-.68,0-1.23-.07s-1-.07-1.25-.07-.67,0-1.22.07-1,.07-1.23.07a.5.5,0,0,1-.56-.56c0-1.7.07-4.24.22-7.64s.21-6,.21-7.66c0-2.64-.08-6.28-.25-10.9q-5.75.36-8.43.36c-.17,0-.26-.08-.26-.23a4.58,4.58,0,0,1,.2-1.15c.16-.66.26-1,.29-1.16a17.34,17.34,0,0,1,.31-2.17.39.39,0,0,1,.38-.29l.27,0q7.89.47,10.41.46,2.22,0,7.29-.33a25,25,0,0,0,2.87-.22c.39,0,.61.13.65.4a15.46,15.46,0,0,0,0,2.16c0,.19,0,.5.06.9A8.1,8.1,0,0,1,313.1,158.25Z" style="fill:#1d3557;stroke:#1d3557;stroke-miterlimit:10;stroke-width:0.5px"/><path d="M345.66,185.05q0,.27-.54.27c-.28,0-.69,0-1.23-.07s-1-.07-1.24-.07-.71,0-1.27.07-1,.07-1.27.07-.95-1.13-1.6-3.38-1.3-3.4-2-3.42-2-.05-4.3-.05h-3.52c-2.46,0-3.85,0-4.2.05-.53,0-1.1,1.19-1.7,3.43s-1.07,3.37-1.39,3.37h-5c-.3,0-.45-.11-.45-.32a4.11,4.11,0,0,1,.31-1l5.47-14.94q.69-1.8,4.19-10.41c.41-1,1-2.39,1.69-4.3.18-.57.37-.85.58-.85a11.1,11.1,0,0,1,1.25.11,6.63,6.63,0,0,0,2.46,0,9.24,9.24,0,0,1,1.2-.12c.13,0,.32.27.56.82q.52,1.26,5.28,13.45Q345.66,184.9,345.66,185.05Zm-10.39-12.31a37.64,37.64,0,0,0-2-5.8q-1.93-5-2.74-6.55-4.62,11.78-4.61,12.33c0,.5.56.8,1.69.89.06,0,.79,0,2.19,0h2.29C334.21,173.63,335.27,173.34,335.27,172.74Z" style="fill:#1d3557;stroke:#1d3557;stroke-miterlimit:10;stroke-width:0.5px"/><path d="M371.49,180.48a19.68,19.68,0,0,1-.34,4.43.74.74,0,0,1-.78.65c-1.1,0-2.75-.06-4.95-.19s-3.85-.19-4.95-.19-2.59,0-4.66.07-3.62.07-4.66.07a.49.49,0,0,1-.55-.56q0-2.43.16-7.34c.12-3.27.17-5.72.17-7.36s-.08-4.3-.23-7.74-.24-6-.24-7.75c0-.33.19-.49.56-.49s.68,0,1.23.07,1,.06,1.24.06.69,0,1.25-.06,1-.07,1.25-.07.54.14.54.42q0,2.37-.18,7.12t-.18,7.13v3.52c0,1.58,0,2.75,0,3.52,0,3.3.13,5,.4,5q8.22,0,12.42-.41l1-.15a5.78,5.78,0,0,1,1-.14C371.33,180.05,371.49,180.2,371.49,180.48Z" style="fill:#1d3557;stroke:#1d3557;stroke-miterlimit:10;stroke-width:0.5px"/><path d="M217.6,206.55c-.3.49-.71,1.23-1.23,2.23a18.81,18.81,0,0,1-.87,2,.42.42,0,0,1-.36.2l-2.15-.79a10.9,10.9,0,0,0-3.58-.79q-4.09,0-4.1,3.61c0,1.34,1,2.5,2.88,3.5,3.22,1.68,5,2.65,5.35,2.9a7.5,7.5,0,0,1,2.88,6.2,9.22,9.22,0,0,1-3.95,7.87,14.41,14.41,0,0,1-8.72,2.58c-1.6,0-2.47-.18-2.58-.53-.06-.57-.2-1.39-.41-2.48-.11-.44-.3-1.11-.55-2a1.1,1.1,0,0,1-.07-.38.29.29,0,0,1,.33-.32c.36,0,.91,0,1.64.12s1.29.11,1.66.11q6.91,0,6.92-4.46,0-2.19-2.79-3.79c-3.39-1.93-5.12-2.94-5.2-3a7.46,7.46,0,0,1-2.81-6.11,8.56,8.56,0,0,1,2.73-6.64,9.77,9.77,0,0,1,6.86-2.41,16.93,16.93,0,0,1,4.1.58,11.42,11.42,0,0,1,3.79,1.56A.91.91,0,0,1,217.6,206.55Z" style="fill:#1d3557;stroke:#1d3557;stroke-miterlimit:10;stroke-width:0.5px"/><path d="M244.45,231.09a4.34,4.34,0,0,1-.18,1c-.13.57-.22.91-.24,1-.05.53-.15,1.31-.32,2.34a.53.53,0,0,1-.58.4,7,7,0,0,1-.84-.09,64.3,64.3,0,0,0-8.5-.4c-1.08,0-2.72,0-4.9.09s-3.82.09-4.91.09c-.49,0-.73-.22-.73-.65,0-1.66.09-4.17.28-7.5s.27-5.84.27-7.51-.08-4.85-.26-9.47c0-1.19-.11-3-.25-5.33l0-.31c0-.34.18-.51.58-.51q1.56,0,4.68.09c2.08.06,3.64.08,4.68.08s2.49,0,4.47-.08,3.48-.09,4.47-.09c.7,0,1.08.21,1.14.64a34.6,34.6,0,0,1,.47,3.66.44.44,0,0,1-.49.51c-1.27,0-3.18-.07-5.74-.21s-4.5-.21-5.79-.21a3.51,3.51,0,0,0-2.31.49,3.93,3.93,0,0,0-.47,2.43v3.32a10.46,10.46,0,0,0,.06,1.58c.13.46.52.7,1.16.7l.76,0h.76c2.91,0,5.52-.05,7.85-.15.9,0,2-.11,3.2-.23.32,0,.47.11.47.41a21.33,21.33,0,0,1-.16,2.18,19.41,19.41,0,0,0-.17,2.21c0,.26-.22.4-.67.4-.18,0-.84-.05-2-.16-.84-.09-2.71-.13-5.62-.13-2.46,0-4,0-4.66.09a1,1,0,0,0-1,.93,14.83,14.83,0,0,1,0,1.72v3.3c0,1.55.23,2.51.71,2.9a5.11,5.11,0,0,0,2.79.47l2.45,0c1,0,4-.17,8.76-.53l.33,0C244.3,230.51,244.45,230.69,244.45,231.09Z" style="fill:#1d3557;stroke:#1d3557;stroke-miterlimit:10;stroke-width:0.5px"/><path d="M274.29,235.4q0,.18-.36.18c-.28,0-.71,0-1.29-.07s-1-.07-1.29-.07-.78,0-1.4.07-1.08.07-1.39.07a.85.85,0,0,1-.78-.56q-.72-1.52-4.06-9.39a1.86,1.86,0,0,0-1.63-1c-.19,0-.87,0-2,0-2.05,0-3.26,0-3.65.09s-.47.42-.47,1.14c0,1,.05,2.59.15,4.67s.14,3.62.14,4.64c0,.32-.15.47-.45.47a12.81,12.81,0,0,1-1.35-.1c-.6-.06-1.05-.1-1.37-.1s-.63,0-1.16.07-.9.07-1.15.07-.56-.17-.56-.52c0-1.65.08-4.12.23-7.43s.24-5.79.24-7.44q0-7-.52-15l0-.36c0-.3.3-.45.94-.45,1.28,0,3.19,0,5.74-.1s4.45-.1,5.72-.1a12.38,12.38,0,0,1,7.93,2.37,8.87,8.87,0,0,1,3.3,7.4,12.29,12.29,0,0,1-.89,5.19,10,10,0,0,1-3.48,3.81c-.28.2-.42.38-.42.56s.89,2.19,2.66,5.93A58.71,58.71,0,0,1,274.29,235.4Zm-6.11-20.22q0-4-2.32-5.4-1.71-1-6.17-1c-2.41,0-3.64.19-3.68.58q-.16,1.2-.16,6.44v4.26a1,1,0,0,0,.29.09l1.32.11c1.41.07,2.93.11,4.57.11Q268.18,220.37,268.18,215.18Z" style="fill:#1d3557;stroke:#1d3557;stroke-miterlimit:10;stroke-width:0.5px"/><path d="M304.17,215.44q0,.94-4.37,9.19l-5.53,10.3c-.22.43-.46.65-.73.65h-4.48c-.21,0-.42-.22-.63-.65q-.06-.13-5.3-10-4.49-8.44-4.48-9.23c0-1.17,0-2.94.12-5.29s.12-4.12.12-5.3c0-.55.18-.82.54-.82s.69,0,1.23.06,1,.07,1.24.07.68,0,1.23-.07,1-.06,1.22-.06.52.14.52.42c0,1.2-.08,3-.24,5.44s-.23,4.24-.23,5.46q0,1.51,6.91,13.51,1.83-3.12,4-7.15c2.06-3.9,3.1-6.19,3.1-6.87q0-1.74-.12-5.19c-.07-2.31-.11-4-.11-5.18,0-.29.17-.44.49-.44s.7,0,1.25.06,1,.07,1.23.07.67,0,1.21-.07.95-.06,1.22-.06a.49.49,0,0,1,.56.42c0-.1,0,.18,0,.85,0,1.1,0,2.74.05,4.94S304.17,214.34,304.17,215.44Z" style="fill:#1d3557;stroke:#1d3557;stroke-miterlimit:10;stroke-width:0.5px"/><path d="M316.29,235.11c0,.31-.22.47-.65.47-.27,0-.67,0-1.22-.07s-1-.07-1.23-.07-.7,0-1.25.07-1,.07-1.23.07-.55-.17-.55-.52c0-1.69.07-4.24.23-7.65s.24-6,.24-7.69-.08-4.12-.24-7.43-.23-5.79-.23-7.44c0-.37.17-.55.51-.55s.71,0,1.29.06,1,.07,1.32.07.67,0,1.2-.07.94-.06,1.21-.06.58.15.58.44c0,1.67-.06,4.16-.18,7.49s-.18,5.83-.18,7.49.06,4.28.19,7.7S316.29,233.4,316.29,235.11Z" style="fill:#1d3557;stroke:#1d3557;stroke-miterlimit:10;stroke-width:0.5px"/><path d="M347.85,230.43a1.43,1.43,0,0,1-.43.75,13.67,13.67,0,0,1-10.77,5,13.16,13.16,0,0,1-10.7-4.88,19.09,19.09,0,0,1,.07-22.79,13.16,13.16,0,0,1,10.72-4.94q6.76,0,10.46,4.57a1.37,1.37,0,0,1,.35.78,7.83,7.83,0,0,1-1.18,2.24c-.78,1.24-1.26,1.86-1.42,1.86s-.65-.37-1.36-1.09a12.08,12.08,0,0,0-2.48-2,8.38,8.38,0,0,0-4.23-1.09,8,8,0,0,0-6.87,3.36,12.57,12.57,0,0,0-2.19,7.58,13,13,0,0,0,2.17,7.65,7.92,7.92,0,0,0,6.84,3.46,8.8,8.8,0,0,0,4.22-1.1,12.34,12.34,0,0,0,2.71-2A8,8,0,0,1,345,226.7a9.94,9.94,0,0,1,1.47,1.78A11.38,11.38,0,0,1,347.85,230.43Z" style="fill:#1d3557;stroke:#1d3557;stroke-miterlimit:10;stroke-width:0.5px"/><path d="M373.72,231.09a4.34,4.34,0,0,1-.18,1l-.25,1c0,.53-.15,1.31-.31,2.34a.54.54,0,0,1-.58.4,7.35,7.35,0,0,1-.85-.09,64.23,64.23,0,0,0-8.49-.4c-1.09,0-2.72,0-4.91.09s-3.82.09-4.9.09c-.49,0-.74-.22-.74-.65,0-1.66.1-4.17.28-7.5s.28-5.84.28-7.51-.09-4.85-.27-9.47c0-1.19-.11-3-.24-5.33l0-.31q0-.51.57-.51c1.05,0,2.61,0,4.69.09s3.64.08,4.68.08,2.49,0,4.47-.08,3.47-.09,4.47-.09c.7,0,1.08.21,1.14.64a33.44,33.44,0,0,1,.46,3.66c0,.34-.16.51-.49.51-1.26,0-3.17-.07-5.74-.21s-4.49-.21-5.78-.21a3.51,3.51,0,0,0-2.31.49,3.91,3.91,0,0,0-.48,2.43v3.32a8.63,8.63,0,0,0,.07,1.58c.13.46.52.7,1.16.7l.75,0H361c2.92,0,5.53-.05,7.85-.15.91,0,2-.11,3.21-.23.31,0,.47.11.47.41,0,.47-.06,1.2-.17,2.18a22.09,22.09,0,0,0-.17,2.21c0,.26-.22.4-.66.4-.18,0-.84-.05-2-.16-.83-.09-2.7-.13-5.62-.13-2.45,0-4,0-4.66.09a1,1,0,0,0-1,.93c0-.1,0,.47,0,1.72v3.3c0,1.55.24,2.51.71,2.9a5.11,5.11,0,0,0,2.79.47l2.45,0c1,0,4-.17,8.76-.53l.34,0C373.57,230.51,373.72,230.69,373.72,231.09Z" style="fill:#1d3557;stroke:#1d3557;stroke-miterlimit:10;stroke-width:0.5px"/><path d="M397.31,206.55c-.29.49-.7,1.23-1.22,2.23-.17.46-.46,1.11-.87,2a.42.42,0,0,1-.36.2l-2.15-.79a10.9,10.9,0,0,0-3.58-.79q-4.1,0-4.1,3.61c0,1.34,1,2.5,2.87,3.5,3.23,1.68,5,2.65,5.36,2.9a7.52,7.52,0,0,1,2.87,6.2,9.2,9.2,0,0,1-3.95,7.87,14.38,14.38,0,0,1-8.71,2.58c-1.61,0-2.47-.18-2.59-.53-.06-.57-.19-1.39-.4-2.48-.12-.44-.3-1.11-.56-2a1.36,1.36,0,0,1-.06-.38.29.29,0,0,1,.33-.32c.36,0,.9,0,1.64.12s1.29.11,1.66.11q6.92,0,6.91-4.46,0-2.19-2.79-3.79c-3.38-1.93-5.12-2.94-5.19-3a7.46,7.46,0,0,1-2.81-6.11,8.59,8.59,0,0,1,2.72-6.64,9.81,9.81,0,0,1,6.87-2.41,17,17,0,0,1,4.1.58,11.51,11.51,0,0,1,3.79,1.56A.91.91,0,0,1,397.31,206.55Z" style="fill:#1d3557;stroke:#1d3557;stroke-miterlimit:10;stroke-width:0.5px"/><path d="M147.69,193.85c0-7.49-16.35-13.55-36.52-13.55s-36.51,6.06-36.51,13.55c7.93,7.53,16.35,13.56,36.51,13.56S143.57,199.14,147.69,193.85Z" style="fill:#fff;stroke:#1d3557;stroke-miterlimit:10;stroke-width:0.5px"/><path d="M80.42,128.55c.74,12.79-5.27,23.53-13.42,24S51.65,143,50.91,130.26s5.27-23.53,13.42-24S79.68,115.77,80.42,128.55Z" style="fill:#1d3557;stroke:#1d3557;stroke-miterlimit:10;stroke-width:0.5px"/><path d="M141.93,128.55c-.74,12.79,5.27,23.53,13.42,24s15.35-9.51,16.09-22.29-5.27-23.53-13.42-24S142.67,115.77,141.93,128.55Z" style="fill:#1d3557;stroke:#1d3557;stroke-miterlimit:10;stroke-width:0.5px"/><path d="M168.94,121.07a2.24,2.24,0,0,0,0,4.31c.79.22,18.91,5.47,24.15,28.21a2.23,2.23,0,0,0,4.35-1c-5.87-25.44-26.46-31.28-27.33-31.52A2.29,2.29,0,0,0,168.94,121.07Z" style="fill:#1d3557;stroke:#1d3557;stroke-miterlimit:10;stroke-width:0.5px"/><path d="M193.09,149.26a12.42,12.42,0,0,0-.77,15.25,2.71,2.71,0,0,0,4.44-3.12,7,7,0,1,1,11.39-8,2.71,2.71,0,1,0,4.44-3.12,12.41,12.41,0,0,0-17.27-3A12.68,12.68,0,0,0,193.09,149.26Z" style="fill:#1d3557;stroke:#1d3557;stroke-miterlimit:10;stroke-width:0.5px"/><path d="M179.81,134.05l9.35-10.89s7.23,9.51,8.26,19.66l-8.91,4.93S184,138.25,179.81,134.05Z" style="fill:#fff;stroke:#1d3557;stroke-miterlimit:10;stroke-width:0.5px"/><path d="M111.17,232c-11.56,0-24.28-14.52-34.87-39.83-8.9-21.23-15.11-47.48-15.11-63.82,0-13.81,4.65-23.33,14.22-29.09,8-4.81,19.68-7.15,35.76-7.15s27.79,2.34,35.77,7.15c9.57,5.76,14.22,15.28,14.22,29.09,0,16.34-6.21,42.59-15.1,63.82C135.46,217.46,122.74,232,111.17,232Z" style="fill:#1d3557;stroke:#1d3557;stroke-miterlimit:10;stroke-width:0.5px"/><path d="M163.33,128.33c0-31.34-23.35-38.41-52.16-38.41S59,97,59,128.33c0,12.33,3.61,31.33,9.75,49.85a106.88,106.88,0,0,0,31.28,7.45,10.51,10.51,0,0,1,21,0,105.94,105.94,0,0,0,32.72-8C159.8,159.26,163.33,140.53,163.33,128.33Z" style="fill:#fff;stroke:#1d3557;stroke-miterlimit:10;stroke-width:0.5px"/><path d="M67.77,64.17c-.15,8.27-2.56,14.94-5.4,14.89s-5-6.8-4.86-15.07,2.56-15,5.4-14.9S67.91,55.89,67.77,64.17Z" style="fill:#1d3557;stroke:#1d3557;stroke-miterlimit:10;stroke-width:0.5px"/><path d="M156.05,65.73c-.15,8.27,2,15,4.86,15.07s5.25-6.62,5.39-14.89-2-15-4.86-15.08S156.19,57.45,156.05,65.73Z" style="fill:#1d3557;stroke:#1d3557;stroke-miterlimit:10;stroke-width:0.5px"/><path d="M164.27,65.87c-.4,22.91-24.17,41.06-53.1,40.55S59.13,86.93,59.54,64,83.72,23,112.64,23.47,164.68,43,164.27,65.87Z" style="fill:#fff;stroke:#1d3557;stroke-miterlimit:10;stroke-width:0.5px"/><path d="M85.26,86.21A13.64,13.64,0,0,1,71.88,72.35l.29-16.21A13.63,13.63,0,0,1,86,42.76l52.53.92a13.63,13.63,0,0,1,13.37,13.86l-.28,16.22a13.64,13.64,0,0,1-13.86,13.38Z" style="fill:#ddd"/><path d="M150,57.51a11.67,11.67,0,0,0-11.47-11.88L86,44.7A11.69,11.69,0,0,0,74.11,56.17l-.28,16.21A11.67,11.67,0,0,0,85.29,84.26l52.53.93A11.67,11.67,0,0,0,149.7,73.72Z" style="fill:#1d3557"/><path d="M96.83,64.07a4.7,4.7,0,1,0-4.69,4.7A4.69,4.69,0,0,0,96.83,64.07Z" style="fill:#fff"/><path d="M136.33,64.07a4.69,4.69,0,1,0-4.69,4.7A4.69,4.69,0,0,0,136.33,64.07Z" style="fill:#fff"/><path d="M149.35,53.53,128,85l6.7.11L149.9,62.71l.09-5.2A11.66,11.66,0,0,0,149.35,53.53ZM141.16,46,114.84,84.78l10.85.2,22.72-33.51A11.66,11.66,0,0,0,141.16,46ZM74.24,75.67A11.75,11.75,0,0,0,77.41,81l24.42-36-6.69-.12ZM86,44.7a11.59,11.59,0,0,0-4.64.88L74.11,56.25l-.28,16.13c0,.15,0,.3,0,.45l19-28Z" style="fill:#fff;opacity:0.5;mix-blend-mode:soft-light"/><rect x="102.39" y="72.5" width="3.48" height="2.98" transform="translate(-0.37 0.52) rotate(-0.28)" style="fill:#fff"/><rect x="116.33" y="72.43" width="3.48" height="2.98" transform="translate(-0.38 0.6) rotate(-0.29)" style="fill:#fff"/><rect x="105.89" y="75.47" width="3.48" height="2.98" transform="translate(-0.38 0.53) rotate(-0.28)" style="fill:#fff"/><rect x="112.86" y="75.43" width="3.48" height="2.98" transform="translate(-0.38 0.56) rotate(-0.28)" style="fill:#fff"/><rect x="109.37" y="75.45" width="3.48" height="2.98" transform="translate(-0.39 0.57) rotate(-0.29)" style="fill:#fff"/><path d="M69.19,47.59A51.92,51.92,0,0,1,98.07,27.17c19.7-5.44,1.67,3.78-4.57,6.22S79.45,37.64,69.19,47.59Z" style="fill:#fff;stroke:#1d3557;stroke-miterlimit:10;stroke-width:0.5px;mix-blend-mode:soft-light"/><path d="M56.18,127.91a2.82,2.82,0,0,1-1.43-.12c-1-.38-25.34-9.59-29.8-41A2.71,2.71,0,0,1,30.32,86c4,28.21,26.07,36.57,26.29,36.65a2.72,2.72,0,0,1-.43,5.22Z" style="fill:#1d3557;stroke:#1d3557;stroke-miterlimit:10;stroke-width:0.5px"/><path d="M28.22,88.79a14.27,14.27,0,0,1-3.4.21A14.16,14.16,0,0,1,11.46,74.11a3.1,3.1,0,1,1,6.19.33,8,8,0,1,0,15.88.88,3.1,3.1,0,0,1,6.19.34,14.17,14.17,0,0,1-11.5,13.13Z" style="fill:#1d3557;stroke:#1d3557;stroke-miterlimit:10;stroke-width:0.5px"/><path d="M43.33,107l-9.22,11s-7.34-9.43-8.5-19.57l8.86-5S39.14,102.87,43.33,107Z" style="fill:#fff;stroke:#1d3557;stroke-miterlimit:10;stroke-width:0.5px"/><path d="M111.17,203.14c-13.12,0-25.37-3.62-36.51-9.29,9.41,22.15,22.3,40.3,36.51,40.3s27.11-18.15,36.52-40.3A76.52,76.52,0,0,1,111.17,203.14Z" style="fill:#fff;stroke:#1d3557;stroke-miterlimit:10;stroke-width:0.5px"/><path d="M118.77,197c0-6-3.89-10.93-8.68-10.93S101.4,191,101.4,197,105.29,208,110.09,208,118.77,203.06,118.77,197Z" style="fill:#1d3557;stroke:#1d3557;stroke-miterlimit:10;stroke-width:0.5px"/><path d="M115.35,192.4c0-5.42-2.28-9.82-5.11-9.82s-5.11,4.4-5.11,9.82,2.29,9.83,5.11,9.83S115.35,197.83,115.35,192.4Z" style="fill:#fff;stroke:#1d3557;stroke-miterlimit:10;stroke-width:0.5px"/><path d="M148.62,248c0-3.89-16.76-7.05-37.44-7.05S73.73,244.13,73.73,248s16.76,7,37.45,7S148.62,251.92,148.62,248Z" style="fill:#1d3557;stroke:#1d3557;stroke-miterlimit:10;stroke-width:0.5px"/><path d="M32,42.27v.11l-.79.82-.84.14-.45.57.32.31-.16.16-.3,0-1.09.69-.59-.56-1,1.23-.15.54-.44.46-.23.2-.23.84.58.55-.28,1.91.45.24.22-.23.26.38-.09.22.86.83,2.05.1.4-.43,0-.09.73-.76v-.41l.41-.44h.47l.68-.59.77.9,1.95.51.36,1.06.36.3h.59l.81.79.9.11.68.65.32-.34a14.13,14.13,0,0,1-3.8,11.51l0,0A12.85,12.85,0,0,1,34,66.16l-.52-.68.6-.6-.14-.24-.81.08-.16-.2-.15-.31L32.55,64l-.29.3-.34,0v-.48l-.15-.21-.35.2-.15-.18.32-.45.29-.89-.18-.56-.15-1.1-.05-.32-.77-.46h0l-.14-.52.57-.56.07-.7-1.11-1.31-.13-1-.28-.42-.51.27-.69-.15-.87.89-.34.17-.61.29-.54-.46-.64-.16-.63.64-.95-.19-.47.17.16.19-.54.64-.52-.08-.73.51.1,1.09-.18.13-.74.55L20,59l-.68.5-.22-.68-.32-.17-.23,1.28-.53.43-.56-.19-.28-.49L17,58.92l.28-.92,1.15-1.21.37.35.61-.23-.66-.57v-.61l.18-1-.24-.32-.05-1.25.27-1h-.11v-.86l.21-.12h.16l0-.36,0,0-.21.16-.25.13-.18-.17,0-.19.21-.22.14-.06.26.09.09-.13,0,0,0,0,.26-.36-.11-.19.21-.13.17.16-.05.27.21.15.52-.29.2-.11h0l.1-.14-.23-.24-.41.16-.25-.24.12-.25-.35-.37-.33.09-.27.07-.63-.55-.25.79-.19.19-.4-.49-.88.56-.06.53.7.66L17,51.3l.25.64-.19.28-.57-.56-.56.44-.41.1L15,51.94l.34-1.42.29-.58.34.25.22-.26-.12-.17.2-.29,0,0-.15.06-.19-.13L16.2,49V48.6h0v-.11l.56-.75.53,0-.33,1.17,1.18-.76-.2-.45.08-.09.33-.35-.14-.42-.37.23-.37-.35-.27.11-1.07.44-.55.74-.17.56.5.43-.43.33-.33-.19,0-.71-.68.66-.12.25.14.3.29-.21.2.29-.38.46.1.22-.58.65s-.38-.32-.41-.29l.47-.5v-.73l-.29.1v.53l-.45.42-.64-.08-.55.57-.13,1,.53-.55.21.1v.27l.61-.59.31.12-.68.66-.21-.12-.51.33-.34.12-.49.51A14.12,14.12,0,0,1,15.32,45l0,0a14,14,0,0,1,9-4.26l.1.32-.27.65,0,.4.29.21.27-.22.5.21.24-.59.55.4-.12.13-.38.29-.3.45.16.87-.42.6.38.52.27-.18.23.34-.61.43-.36.58.17.35.64.46.4-.15.45-.48.28-.34-.16-.35-.17-1.12.38-.26,0-.61.29.16,1.3-.28,0,.22-.36.34.32,0,.26-.17.14-.36-.31-.3.05-.17h-.19l-.8.25-.53-.24.43-.44h.27l.69-.06.41.36h.8l-.44-.69.12-.43.52.4.54,0,.51-.54C31.32,41.93,31.68,42.09,32,42.27Z" style="fill:#fff"/><path d="M14.2,43.15a16.32,16.32,0,1,1-.31,23.09A16.31,16.31,0,0,1,14.2,43.15ZM32,42.38v-.11c-.35-.18-.71-.34-1.07-.49l-.51.54-.54,0-.52-.4-.12.43.44.69h-.8l-.41-.36-.69.06h-.27l-.43.44.53.24.8-.25h.19l-.05.17.31.3-.14.36-.26.17-.32,0,.36-.34,0-.22-1.3.28-.29-.16,0,.61-.38.26.17,1.12.16.35-.28.34-.45.48-.4.15-.64-.46-.17-.35.36-.58.61-.43-.23-.34-.27.18L25,44.47l.42-.6L25.24,43l.3-.45.38-.29.12-.13-.55-.4-.24.59-.5-.21-.27.22-.29-.21,0-.4.27-.65-.1-.32a14,14,0,0,0-9,4.26l0,0a14.12,14.12,0,0,0-3.79,7.87l.49-.51.34-.12.51-.33.21.12.68-.66-.31-.12-.61.59V51.6l-.21-.1-.53.55.13-1,.55-.57.64.08.45-.42v-.53l.29-.1v.73l-.47.5s.41.29.41.29l.58-.65-.1-.22.38-.46-.2-.29-.29.21-.14-.3.12-.25.68-.66,0,.71.33.19.43-.33-.5-.43.17-.56.55-.74,1.07-.44.27-.11.37.35.37-.23.14.42-.33.35-.08.09.2.45-1.18.76.33-1.17-.53,0-.56.75v.11h0V49l-.28.34.19.13.15-.06,0,0-.2.29.12.17-.22.26-.34-.25-.29.58L15,51.94l.47.26.41-.1.56-.44.57.56.19-.28L17,51.3l.36-.71-.7-.66.06-.53.88-.56.4.49.19-.19.25-.79.63.55.27-.07.33-.09.35.37-.12.25.25.24.41-.16.23.24-.1.14h0l-.2.11-.52.29-.21-.15.05-.27-.17-.16-.21.13.11.19-.26.36,0,0,0,0-.09.13-.26-.09-.14.06-.21.22,0,.19.18.17.25-.13.21-.16,0,0,0,.36H19l-.21.12v.86h.11l-.27,1,.05,1.25.24.32-.18,1v.61l.66.57-.61.23-.37-.35L17.26,58l-.28.92.24.75.28.49.56.19.53-.43.23-1.28.32.17.22.68L20,59l1,.82.74-.55.18.24-.81.73-1.28-.06-.53.32-.32.23-.22-.28-.39.31.14.13-1.07.68-.9-.17-.12-.4-1.36-.22-.7-.49-.22.24.66.48,1,.19.2.27-.37.28-1.07-.26-.81-.77-.61.22-.58-.55A14,14,0,0,0,15.73,65,14.13,14.13,0,0,0,34,66.16a12.85,12.85,0,0,0,1.76-1.55l0,0a14.13,14.13,0,0,0,3.8-11.51l-.32.34-.68-.65-.9-.11-.81-.79h-.59l-.36-.3-.36-1.06L33.56,50l-.77-.9-.68.59h-.47l-.41.44v.41l-.73.76,0,.09-.4.43-2.05-.1-.86-.83.09-.22-.26-.38-.22.23-.45-.24.28-1.91-.58-.55.23-.84.23-.2.44-.46.15-.54,1-1.23.59.56,1.09-.69.3,0,.16-.16L30,43.91l.45-.57.84-.14Z" style="fill:#1d3557"/><path d="M29.7,55.31l.28.42.13,1L31.22,58l-.07.7-.57.56.14.52h0l.77.46.05.32.15,1.1.18.56-.29.89-.32.45.15.18.35-.2.15.21v.48l.34,0,.29-.3.22.24.15.31.16.2.81-.08.14.24-.6.6-1.11.1-1.27-.33-.74-.83-.82-.1-.66-.92-.26.16-1.75-1.68s-1,.16-1.05.2l-.37.25L25,62.06l-1.7-.15L23,61.49l-.54-.57.13-.89-.7-.53-.18-.24.18-.13L21.82,58l.73-.51.52.08.54-.64-.16-.19.47-.17.95.19.63-.64.64.16.54.46.61-.29.34-.17.87-.89.69.15Z" style="fill:#fff"/><path d="M33.43,65.48l.52.68A14.13,14.13,0,0,1,15.73,65a14,14,0,0,1-3.2-4.64l.58.55.61-.22.81.77,1.07.26.37-.28-.2-.27-1-.19-.66-.48.22-.24.7.49,1.36.22.12.4.9.17,1.07-.68-.14-.13.39-.31.22.28.32-.23.53-.32,1.28.06.81-.73.7.53-.13.89.54.57.28.42,1.7.15.39.27.37-.25s1.05-.2,1.05-.2l1.75,1.68.26-.16.66.92.82.1.74.83,1.27.33Z" style="fill:#fff"/><path d="M37.27,43.46a16.32,16.32,0,1,1-23.07-.31A16.34,16.34,0,0,1,37.27,43.46Z" style="fill:none;stroke:#1d3557;stroke-miterlimit:10;stroke-width:0.5px"/><circle cx="110.9" cy="129.07" r="10.51" transform="translate(-39.18 209.28) rotate(-77.45)" style="fill:#1d3557;stroke:#1d3557;stroke-miterlimit:10;stroke-width:0.5px"/><path d="M106.29,130.85h9.22a.22.22,0,0,0,.23-.22v-5.21a.22.22,0,0,0-.23-.22h-9.22a.22.22,0,0,0-.23.22v5.21A.22.22,0,0,0,106.29,130.85Zm.22-5.2h8.78v4.76h-8.78Z" style="fill:#fff"/><path d="M105.77,132h4c0,.42-.22,1.25-.6,1.49h-1.6a.3.3,0,0,0,0,.6h6.85a.3.3,0,0,0,0-.6H113c-.38-.24-.56-1.07-.6-1.49H116a.89.89,0,0,0,.9-.89V124.9a.89.89,0,0,0-.9-.89H105.77a.89.89,0,0,0-.9.89v6.25A.89.89,0,0,0,105.77,132Zm6.4,1.49h-2.25a3.87,3.87,0,0,0,.43-1.49h1.4A4,4,0,0,0,112.17,133.53Zm-6.7-8.63a.3.3,0,0,1,.3-.3H116a.3.3,0,0,1,.3.3v6.25a.29.29,0,0,1-.3.3H105.77a.29.29,0,0,1-.3-.3Z" style="fill:#fff"/><polygon points="73.75 28.48 76.58 26.21 70.39 13.75 64.16 18.16 73.75 28.48" style="fill:#1d3557"/><polygon points="72.03 33.32 72.75 29.76 56.97 17.87 55 25.24 72.03 33.32" style="fill:#1d3557"/><polygon points="80.75 26.48 77.87 26.05 71.96 4.93 80.56 7.57 80.75 26.48" style="fill:#1d3557"/></g></g></svg>